Coordinates
version=1
nRows=12
nColumns=24
inDegrees=yes

Units are S.I. units (second, meters, Newtons, ...)
Angles are in degrees.

endheader
time	pelvis_tilt	pelvis_list	pelvis_rotation	pelvis_tx	pelvis_ty	pelvis_tz	hip_flexion_r	hip_adduction_r	hip_rotation_r	knee_angle_r	ankle_angle_r	subtalar_angle_r	mtp_angle_r	hip_flexion_l	hip_adduction_l	hip_rotation_l	knee_angle_l	ankle_angle_l	subtalar_angle_l	mtp_angle_l	lumbar_extension	lumbar_bending	lumbar_rotation
      1.28300000	     -3.07676141	      1.82907195	     -6.83213864	      0.29774120	      1.06577720	      0.33028720	     20.87082531	     -4.75931103	     -4.26614033	    -70.59454348	      1.25936808	     -9.12258501	      3.56391198	     15.07141307	      3.28294243	     -2.04819588	    -20.50988481	     11.66931489	      1.81594874	     -1.20512000	    -14.14370401	     -4.20853242	      0.54388597
      1.28716667	     -3.03881036	      1.72812255	     -6.72140935	      0.30284624	      1.06691129	      0.33006342	     21.27117265	     -4.63777725	     -4.45592789	    -70.10108182	      1.56148753	     -8.82113831	      3.58130312	     14.50569298	      3.24746963	     -1.94752817	    -20.06396473	     11.69729367	      1.88335402	     -1.19569780	    -14.20687327	     -4.04881941	      0.32823200
      1.29133333	     -2.98776036	      1.62324194	     -6.60166678	      0.30793726	      1.06803806	      0.32983286	     21.64203385	     -4.51480497	     -4.65535500	    -69.55232475	      1.86912999	     -8.47543416	      3.60792603	     13.92589304	      3.20892211	     -1.83835038	    -19.61442576	     11.72479562	      1.95494235	     -1.18535220	    -14.29176727	     -3.88526458	      0.10752172
      1.29550000	     -2.94850512	      1.50337221	     -6.46915476	      0.31301043	      1.06911313	      0.32960204	     22.00746390	     -4.37065870	     -4.86246792	    -68.94529969	      2.17723110	     -8.09221209	      3.63807060	     13.36484178	      3.15007680	     -1.72045493	    -19.17735170	     11.74510337	      2.04368415	     -1.17668165	    -14.37232180	     -3.71384194	     -0.08170680
      1.29966667	     -2.92529009	      1.39024050	     -6.32682615	      0.31810500	      1.07010847	      0.32934686	     22.37719795	     -4.23970081	     -5.08277080	    -68.29426253	      2.48885150	     -7.68245645	      3.67019409	     12.82267746	      3.09465302	     -1.61386006	    -18.73939973	     11.75710824	      2.13962526	     -1.16921847	    -14.41562431	     -3.51810435	     -0.26116904
      1.30383333	     -2.89645400	      1.29504145	     -6.18480835	      0.32318642	      1.07105026	      0.32910442	     22.73691867	     -4.12703648	     -5.29752215	    -67.61023607	      2.81615586	     -7.22891908	      3.70802859	     12.27301420	      3.05851796	     -1.49565090	    -18.29178161	     11.78566134	      2.22374846	     -1.16113773	    -14.46867579	     -3.35253670	     -0.47401333
      1.30800000	     -2.82396634	      1.22441370	     -6.04608375	      0.32823237	      1.07200191	      0.32887443	     23.04763297	     -4.04492567	     -5.49803814	    -66.89327250	      3.16468134	     -6.73534602	      3.76953356	     11.67033056	      3.05399422	     -1.35778740	    -17.82044202	     11.83700937	      2.25814440	     -1.14748575	    -14.57205342	     -3.22252791	     -0.78982012
      1.31216667	     -2.81090434	      1.11849856	     -5.88886858	      0.33330000	      1.07283686	      0.32864246	     23.39240847	     -3.91423170	     -5.71853729	    -66.10610985	      3.46624941	     -6.28723284	      3.81854623	     11.14705811	      2.99771151	     -1.22970820	    -17.38967983	     11.84147104	      2.33861488	     -1.13829135	    -14.61052057	     -3.05956145	     -0.97116650
      1.31633333	     -2.75909102	      1.03548431	     -5.73580499	      0.33835773	      1.07367718	      0.32840852	     23.69116003	     -3.81472399	     -5.93014016	    -65.28857461	      3.79538572	     -5.79924420	      3.88024657	     10.57349687	      2.97062192	     -1.09431819	    -16.93208979	     11.87461375	      2.40013414	     -1.12631351	    -14.68642479	     -2.91178987	     -1.21577706
      1.32050000	     -2.75109695	      0.98367169	     -5.58645135	      0.34342656	      1.07434941	      0.32817785	     24.04029635	     -3.74412613	     -6.12810987	    -64.45569555	      4.11982346	     -5.32074004	      3.96584155	     10.04710214	      2.97249187	     -0.94473758	    -16.46769416	     11.90117295	      2.43642130	     -1.10978306	    -14.70889248	     -2.77561324	     -1.50109956
      1.32466667	     -2.71681467	      0.91177601	     -5.42980899	      0.34847768	      1.07504570	      0.32795736	     24.33669355	     -3.65094029	     -6.33272018	    -63.56045575	      4.42369657	     -4.85891967	      4.04741623	      9.49872837	      2.94883535	     -0.80851930	    -16.01753712	     11.92993514	      2.49068855	     -1.09450683	    -14.76449382	     -2.63301512	     -1.71902821
      1.32883333	     -2.71617885	      0.85167250	     -5.27409964	      0.35353707	      1.07561470	      0.32775054	     24.66243795	     -3.56409634	     -6.52734392	    -62.63432121	      4.72273706	     -4.40526252	      4.13265857	      8.99104021	      2.93147150	     -0.67168439	    -15.57548292	     11.95960056	      2.54445476	     -1.07869699	    -14.77466079	     -2.50413278	     -1.94530836
